<?xml version="1.0" encoding="UTF-8" standalone="no"?>
<svg
   width="100"
   height="100"
   viewBox="0 0 1000 1000"
   version="1.1"
   id="svg36"
   sodipodi:docname="svglogo.svg"
   inkscape:version="1.1.2 (b8e25be8, 2022-02-05)"
   xmlns:inkscape="http://www.inkscape.org/namespaces/inkscape"
   xmlns:sodipodi="http://sodipodi.sourceforge.net/DTD/sodipodi-0.dtd"
   xmlns="http://www.w3.org/2000/svg"
   xmlns:svg="http://www.w3.org/2000/svg">
  <defs
     id="defs40" />
  <sodipodi:namedview
     id="namedview38"
     pagecolor="#ffffff"
     bordercolor="#666666"
     borderopacity="1.0"
     inkscape:pageshadow="2"
     inkscape:pageopacity="0.0"
     inkscape:pagecheckerboard="0"
     showgrid="false"
     inkscape:zoom="5.25"
     inkscape:cx="50.095238"
     inkscape:cy="50"
     inkscape:window-width="1296"
     inkscape:window-height="941"
     inkscape:window-x="0"
     inkscape:window-y="25"
     inkscape:window-maximized="0"
     inkscape:current-layer="svg36" />
  <!-- 
    This is the exact path data extracted from the SVG you provided.
    It has been scaled and centered within this SVG's viewBox.
  -->
  <path
     d="m 793.36981,829.81157 c -5.3398,-10.88392 -11.4246,-22.64946 -13.522,-26.1457 -2.0972,-3.49644 -7.888,-14.93873 -12.8681,-25.42751 -4.9804,-10.48894 -12.7433,-26.69896 -17.2509,-36.0223 -4.5077,-9.32355 -9.5704,-21.71935 -11.2504,-27.54646 -1.6803,-5.82726 -4.3173,-11.54832 -5.8605,-12.71373 -1.5423,-1.16606 -6.4604,-10.16749 -10.9274,-20.00452 -4.467,-9.83703 -11.778,-21.09835 -16.2465,-25.02497 -4.4684,-3.9265 -8.1245,-11.18701 -8.1245,-16.13428 0,-4.94727 -2.8244,-12.91058 -6.2764,-17.69625 -3.4522,-4.78564 -10.9365,-17.12907 -16.6318,-27.02981 -5.6953,-10.30092 -12.4847,-22.54294 -15.0874,-27.20464 -2.6026,-4.66167 -11.2819,-21.82519 -19.2872,-38.14124 -8.00527,-16.31605 -15.86399,-30.61885 -17.46375,-31.78429 -1.60006,-1.16607 -11.17223,-17.37558 -21.27221,-36.02233 -10.09984,-18.64687 -19.84963,-34.85689 -21.66614,-36.0223 -1.81668,-1.16606 -6.7969,-8.79368 -11.06747,-16.95177 -4.27075,-8.15796 -9.02861,-15.7862 -10.57328,-16.95161 -5.13579,-3.87507 -35.25399,-45.58097 -35.25399,-48.81793 0,-1.75118 -5.01125,-7.6936 -11.1361,-13.20531 -6.12485,-5.51173 -9.84944,-10.02139 -8.2769,-10.02139 1.57205,0 -2.74521,-6.38179 -9.59522,-14.1819 -6.84986,-7.80013 -17.36457,-20.29844 -23.36571,-27.77419 -15.75474,-19.62605 -66.15627,-68.22963 -70.75345,-68.22963 -2.14841,0 -11.1318,-4.76773 -19.96329,-10.59481 -8.83165,-5.82712 -18.85312,-10.59484 -22.27007,-10.59484 -3.41707,0 -12.84916,-4.91491 -20.9601,-10.92204 -16.78639,-12.43217 -35.01318,-15.63243 -90.82448,-15.94702 -52.16705,-0.29471 -68.52719,3.67038 -104.35523,25.28671 -16.58728,10.00779 -32.29946,17.01265 -34.91602,15.56659 -2.61638,-1.44637 -3.33542,-1.10199 -1.59842,0.76403 1.73766,1.86667 -6.31559,12.18454 -17.895879,22.92846 -11.58034,10.74395 -24.34554,25.73248 -28.36721,33.30771 -4.02164,7.57523 -9.22556,13.77329 -11.5645,13.77329 -2.33876,0 -4.25243,5.60863 -4.25243,12.46356 0,6.85511 -1.96397,13.64227 -4.36442,15.08287 -5.68494,3.41153 -5.68494,47.44346 0,50.855 2.40045,1.43997 4.36442,9.35988 4.36442,17.59855 0,11.41524 2.077,15.50668 8.72904,17.19589 4.80093,1.2189 8.72905,3.90101 8.72905,5.96004 0,2.05902 7.62499,3.74357 16.9444,3.74357 13.98773,0 20.0329,-2.99876 34.643179,-17.18516 9.73413,-9.45198 21.92463,-25.662 27.08977,-36.02232 5.34461,-10.72054 12.42027,-18.837 16.42149,-18.837 5.24332,0 5.77152,-1.22212 2.07763,-4.80905 -5.27069,-5.11785 3.88691,-23.52735 15.10433,-30.36435 3.0583,-1.86393 5.62289,-6.63166 5.69925,-10.59481 0.1832,-9.46721 6.73982,-16.87427 30.45639,-34.40297 10.77813,-7.9659 22.05147,-16.30435 25.05206,-18.53013 11.56037,-8.5747 4.99737,4.9492 -9.10252,18.75694 -19.77805,19.36863 -31.71994,50.36583 -40.23917,104.44896 -17.63903,111.97885 -18.02255,113.62495 -28.95609,124.24124 -13.3551,12.96777 -38.02412,15.38671 -59.474169,5.83176 -37.38757,-16.65436 -77.24848,-49.53391 -73.0208,-60.23157 1.25862,-3.18454 0.51471,-4.72557 -1.65353,-3.4245 -2.16786,1.30062 -8.03738,-4.06951 -13.0434892,-11.93435 -7.66689997,-12.04582 -9.10167999,-21.10713 -9.10167999,-57.48232 0,-38.17519 1.26520002,-45.38268 10.91124959,-62.15937 6.0011496,-10.43738 10.9112596,-20.81436 10.9112596,-23.05983 0,-4.60465 32.3204,-37.99563 36.77756,-37.99563 1.58521,0 10.47726,-6.82259 19.75907,-15.16137 16.69383,-14.99781 35.785809,-27.12773 56.940089,-36.1764 6.0013,-2.56694 14.34832,-6.38531 18.5491,-8.48501 5.3062,-2.65232 7.65832,-2.18957 7.70468,1.51524 0.0498,3.63288 1.08871,3.86352 3.2734,0.72399 7.81221,-11.23054 53.49035,-16.78119 129.77697,-15.7697 59.60498,0.78962 109.27806,6.91086 117.62308,14.49314 2.28038,2.07197 7.54119,3.76725 11.69053,3.76725 4.1495,0 10.13977,2.45627 13.31173,5.45822 3.17212,3.00197 13.04893,8.77431 21.94887,12.82716 8.89976,4.05303 17.36272,9.22502 18.80661,11.49351 1.44336,2.26838 5.58643,4.12446 9.2056,4.12446 6.50706,0 37.37535,20.34536 40.18654,26.48704 0.80008,1.74815 3.46346,3.17833 5.91869,3.17833 2.45505,0 12.60256,6.18107 22.54979,13.73548 22.43469,17.0381 94.46479,86.79147 94.46479,91.47909 0,1.89358 4.9099,7.58822 10.9112,12.65482 6.0012,5.06674 10.9111,11.22285 10.9111,13.68038 0,2.05755 4.9101,8.88689 10.9113,14.2873 6.0011,5.40041 10.9112,11.84561 10.9112,14.32268 0,2.4771 4.9102,8.25405 10.9113,12.83772 6.0011,4.58367 10.9451,9.96647 10.9867,11.9619 0.05,1.99545 4.9515,8.11902 10.9112,13.60818 5.9596,5.48897 10.8357,11.98367 10.8357,14.43254 0,2.44907 4.9101,10.70343 10.9113,18.34321 6.0012,7.63979 10.9113,16.12705 10.9113,18.86071 0,2.73351 4.9101,8.72032 10.9112,13.30399 6.0012,4.58367 10.9113,11.80559 10.9113,16.04872 0,4.24315 2.9459,8.81257 6.5466,10.15419 3.6007,1.34224 6.5469,5.35986 6.5469,8.92934 0,3.56945 1.9639,6.48988 4.3644,6.48988 2.4004,0 4.3644,3.06284 4.3644,6.8064 0,3.74357 5.8921,14.03006 13.0935,22.85897 7.2015,8.82876 13.0935,17.68825 13.0935,19.68769 0,6.08194 36.2804,22.71578 49.518,22.70328 23.6229,-0.0151 53.3769,-29.15538 60.0668,-58.81322 1.906,-8.44913 5.6087,-24.89747 8.2283,-36.55167 6.1028,-27.15082 5.9761,-87.12207 -0.2429,-114.42376 -2.6541,-11.65434 -6.2741,-29.7714 -8.0445,-40.26033 -3.6531,-21.60518 -13.7395,-46.61699 -18.8292,-46.61699 -1.8742,0 -3.4077,-4.53417 -3.4077,-10.07584 0,-5.54184 -2.6281,-12.19382 -5.8402,-14.78239 -3.2123,-2.58857 -8.0978,-12.02244 -10.8569,-20.9641 -3.0344,-9.83432 -9.3488,-18.50898 -15.982,-21.95609 -6.0312,-3.13409 -10.9657,-7.50282 -10.9657,-9.70807 0,-2.20543 -7.2285,-10.43866 -16.0632,-18.29629 -20.6273,-18.3459 -17.3612,-22.36385 3.7036,-4.55628 26.2492,22.19056 47.6656,38.80163 51.9604,40.30181 2.2242,0.77683 4.044,3.65709 4.044,6.40021 0,2.74312 4.9101,10.12935 10.9113,16.4136 6.0011,6.28424 10.9112,13.41626 10.9112,15.84882 0,2.43272 1.9641,4.42285 4.3646,4.42285 2.4004,0 4.3644,2.92046 4.3644,6.4899 0,3.56945 2.9461,7.58758 6.5468,8.92934 3.6007,1.34225 6.5467,5.03792 6.5467,8.21384 0,3.17609 4.2326,12.98412 9.4058,21.79574 5.1732,8.8116 11.0652,23.17259 13.0935,31.91323 2.0283,8.74066 5.6688,23.99715 8.0903,33.90338 11.55649,47.27785 13.58289,70.52573 8.8337,101.35074 -8.2878,53.79337 -12.5972,75.39 -16.1359,80.86809 -1.8861,2.91996 -2.9202,8.32341 -2.298,12.00754 0.6216,3.68416 -4.6698,19.25316 -11.7599,34.59759 -7.0902,15.34442 -12.0199,28.74516 -10.955,29.77925 1.0656,1.0347 -1.0574,4.29263 -4.7158,7.24094 -3.6588,2.94848 -6.6522,8.78246 -6.6522,12.96457 0,4.18211 -1.4731,8.23948 -3.2732,9.01648 -1.8005,0.77682 -10.0319,14.76205 -18.2923,31.07794 -8.2603,16.31602 -18.243,32.52604 -22.1837,36.0223 -3.9407,3.49627 -10.6542,11.585 -14.9188,17.9748 -4.2649,6.3898 -9.5034,10.56822 -11.6413,9.28524 -2.1378,-1.28299 -3.887,0.64076 -3.887,4.27424 0,3.63385 -2.2247,6.60697 -4.9438,6.60697 -5.2969,0 -21.2432,16.11999 -21.2432,21.47459 0,1.77424 -9.5926,8.95719 -21.3171,15.96206 l -21.3169,12.73601 z"
     fill="#e74c3c"
     id="path34" />
</svg>
